<svg width="735" height="602" viewBox="0 0 735 602" fill="none" xmlns="http://www.w3.org/2000/svg">
<path d="M647.852 36.5696H1.01601C0.744529 36.5637 0.486206 36.4541 0.296338 36.2643C0.106469 36.0744 0.000141144 35.8194 0.000141144 35.5538C0.000141144 35.2882 0.106469 35.0332 0.296338 34.8433C0.486206 34.6535 0.744529 34.5439 1.01601 34.538H647.852C648.124 34.5439 648.382 34.6535 648.572 34.8433C648.762 35.0332 648.868 35.2882 648.868 35.5538C648.868 35.8194 648.762 36.0744 648.572 36.2643C648.382 36.4541 648.124 36.5637 647.852 36.5696Z" fill="#CACACA"/>
<path d="M23.8842 22.3481C30.0566 22.3481 35.0603 17.3453 35.0603 11.174C35.0603 5.00279 30.0566 0 23.8842 0C17.7118 0 12.7081 5.00279 12.7081 11.174C12.7081 17.3453 17.7118 22.3481 23.8842 22.3481Z" fill="#51017C"/>
<path d="M62.4925 22.3481C68.6649 22.3481 73.6686 17.3453 73.6686 11.174C73.6686 5.00279 68.6649 0 62.4925 0C56.3201 0 51.3164 5.00279 51.3164 11.174C51.3164 17.3453 56.3201 22.3481 62.4925 22.3481Z" fill="#51017C"/>
<path d="M101.101 22.3481C107.273 22.3481 112.277 17.3453 112.277 11.174C112.277 5.00279 107.273 0 101.101 0C94.9285 0 89.9247 5.00279 89.9247 11.174C89.9247 17.3453 94.9285 22.3481 101.101 22.3481Z" fill="#51017C"/>
<path d="M624.716 2.76965H597.291C596.747 2.78021 596.23 2.99882 595.849 3.37855C595.468 3.75828 595.255 4.26884 595.255 4.8006C595.255 5.33237 595.468 5.84293 595.849 6.22266C596.23 6.60238 596.747 6.821 597.291 6.83155H624.716C625.26 6.821 625.777 6.60238 626.158 6.22266C626.539 5.84293 626.752 5.33237 626.752 4.8006C626.752 4.26884 626.539 3.75828 626.158 3.37855C625.777 2.99882 625.26 2.78021 624.716 2.76965Z" fill="#CACACA"/>
<path d="M624.716 10.3932H597.291C596.747 10.4037 596.23 10.6224 595.849 11.0021C595.468 11.3818 595.255 11.8924 595.255 12.4242C595.255 12.9559 595.468 13.4665 595.849 13.8462C596.23 14.2259 596.747 14.4445 597.291 14.4551H624.716C625.26 14.4445 625.777 14.2259 626.158 13.8462C626.539 13.4665 626.752 12.9559 626.752 12.4242C626.752 11.8924 626.539 11.3818 626.158 11.0021C625.777 10.6224 625.26 10.4037 624.716 10.3932Z" fill="#CACACA"/>
<path d="M624.716 18.0067H597.291C596.747 18.0173 596.23 18.2359 595.849 18.6156C595.468 18.9953 595.255 19.5059 595.255 20.0377C595.255 20.5694 595.468 21.08 595.849 21.4597C596.23 21.8394 596.747 22.0581 597.291 22.0686H624.716C625.26 22.0581 625.777 21.8394 626.158 21.4597C626.539 21.08 626.752 20.5694 626.752 20.0377C626.752 19.5059 626.539 18.9953 626.158 18.6156C625.777 18.2359 625.26 18.0173 624.716 18.0067Z" fill="#CACACA"/>
<path d="M614.475 70.8691H25.316C22.0538 70.8739 18.9265 72.1435 16.6197 74.3996C14.3129 76.6556 13.0148 79.7142 13.0099 82.9048V84.8457C13.0148 88.0363 14.3129 91.0948 16.6197 93.3509C18.9265 95.607 22.0538 96.8766 25.316 96.8813H614.475C617.737 96.8766 620.864 95.607 623.171 93.3509C625.478 91.0948 626.776 88.0363 626.781 84.8457V82.9048C626.776 79.7142 625.478 76.6556 623.171 74.3996C620.864 72.1435 617.737 70.8739 614.475 70.8691Z" fill="#D0D0D0"/>
<path d="M96.4167 88.6776H40.3355C39.0807 88.6758 37.8779 88.1871 36.9913 87.3187C36.1047 86.4503 35.6067 85.2732 35.6067 84.046C35.6067 82.8188 36.1047 81.6417 36.9913 80.7733C37.8779 79.9049 39.0807 79.4162 40.3355 79.4144H96.4167C102.524 79.331 102.585 88.7618 96.4167 88.6776Z" fill="white"/>
<path d="M264.181 88.6776H208.1C206.845 88.6758 205.642 88.1871 204.755 87.3187C203.869 86.4503 203.371 85.2732 203.371 84.046C203.371 82.8188 203.869 81.6417 204.755 80.7733C205.642 79.9049 206.845 79.4162 208.1 79.4144H264.181C270.288 79.331 270.349 88.7618 264.181 88.6776Z" fill="white"/>
<path d="M431.945 88.6776H375.864C374.609 88.6758 373.406 88.1871 372.519 87.3187C371.633 86.4503 371.135 85.2732 371.135 84.046C371.135 82.8188 371.633 81.6417 372.519 80.7733C373.406 79.9049 374.609 79.4162 375.864 79.4144H431.945C438.052 79.331 438.113 88.7618 431.945 88.6776Z" fill="white"/>
<path d="M591.014 89.1779H534.933C533.677 89.1779 532.472 88.6899 531.584 87.8213C530.696 86.9527 530.197 85.7746 530.197 84.5463C530.197 83.3179 530.696 82.1398 531.584 81.2712C532.472 80.4026 533.677 79.9146 534.933 79.9146H591.014C597.121 79.8312 597.182 89.262 591.014 89.1779Z" fill="#51017C"/>
<path d="M503.515 70.8691H501.469V96.8813H503.515V70.8691Z" fill="white"/>
<path d="M291.81 455.862H51.3625C49.22 455.859 47.166 455.026 45.6511 453.544C44.1362 452.063 43.284 450.054 43.2815 447.958V413.517C43.284 411.422 44.1362 409.413 45.6511 407.931C47.166 406.45 49.22 405.616 51.3625 405.614H291.81C293.953 405.616 296.007 406.45 297.522 407.931C299.037 409.413 299.889 411.422 299.891 413.517V447.958C299.889 450.054 299.037 452.063 297.522 453.544C296.007 455.026 293.953 455.859 291.81 455.862Z" fill="#D0D0D0"/>
<path d="M268.448 450.531H56.8144C54.672 450.528 52.618 449.695 51.1031 448.213C49.5882 446.732 48.736 444.723 48.7335 442.627V418.852C48.736 416.757 49.5882 414.748 51.1031 413.266C52.618 411.785 54.672 410.951 56.8144 410.949H286.36C288.502 410.951 290.556 411.785 292.071 413.266C293.586 414.748 294.438 416.757 294.441 418.852V425.109C294.433 431.849 291.692 438.311 286.819 443.077C281.946 447.842 275.339 450.523 268.448 450.531Z" fill="white"/>
<path d="M195.447 428.288H98.8049C98.2522 428.288 97.7221 428.073 97.3312 427.691C96.9404 427.308 96.7208 426.79 96.7208 426.249C96.7208 425.709 96.9404 425.19 97.3312 424.808C97.7221 424.426 98.2522 424.211 98.8049 424.211H195.447C195.999 424.211 196.529 424.426 196.92 424.808C197.311 425.19 197.531 425.709 197.531 426.249C197.531 426.79 197.311 427.308 196.92 427.691C196.529 428.073 195.999 428.288 195.447 428.288Z" fill="#E6E6E6"/>
<path d="M244.368 436.624H98.8049C98.5308 436.625 98.2593 436.573 98.0059 436.47C97.7525 436.368 97.5222 436.218 97.3282 436.029C97.1342 435.84 96.9803 435.615 96.8753 435.367C96.7703 435.119 96.7162 434.854 96.7162 434.586C96.7162 434.318 96.7703 434.053 96.8753 433.805C96.9803 433.557 97.1342 433.332 97.3282 433.143C97.5222 432.954 97.7525 432.804 98.0059 432.702C98.2593 432.599 98.5308 432.547 98.8049 432.548H244.368C244.92 432.549 245.449 432.764 245.839 433.146C246.229 433.528 246.448 434.046 246.448 434.586C246.448 435.126 246.229 435.644 245.839 436.026C245.449 436.408 244.92 436.623 244.368 436.624Z" fill="#E6E6E6"/>
<path d="M307.17 366.208H33.0085C30.8209 366.205 28.7235 365.354 27.1766 363.841C25.6297 362.328 24.7596 360.277 24.7571 358.137V153.174C24.7596 151.034 25.6297 148.983 27.1766 147.47C28.7236 145.957 30.8209 145.106 33.0085 145.104H307.17C309.358 145.106 311.455 145.957 313.002 147.47C314.549 148.983 315.419 151.034 315.421 153.174V358.137C315.419 360.277 314.549 362.328 313.002 363.841C311.455 365.354 309.358 366.205 307.17 366.208Z" fill="white"/>
<path d="M307.17 367.208H33.0087C30.5499 367.205 28.1925 366.249 26.4539 364.548C24.7152 362.848 23.7371 360.542 23.7342 358.137V153.174C23.7371 150.769 24.7152 148.463 26.4539 146.763C28.1926 145.063 30.5499 144.106 33.0087 144.104H307.17C309.629 144.106 311.986 145.063 313.725 146.763C315.463 148.463 316.441 150.769 316.444 153.174V358.137C316.441 360.542 315.463 362.848 313.725 364.548C311.986 366.249 309.629 367.205 307.17 367.208ZM33.0087 146.104C31.0923 146.107 29.255 146.852 27.8999 148.177C26.5447 149.503 25.7824 151.299 25.7801 153.174V358.137C25.7823 360.012 26.5446 361.809 27.8997 363.134C29.2549 364.459 31.0922 365.205 33.0087 365.207H307.17C309.086 365.205 310.924 364.459 312.279 363.134C313.634 361.809 314.396 360.012 314.398 358.137V153.174C314.396 151.299 313.634 149.503 312.279 148.177C310.924 146.852 309.086 146.107 307.17 146.104L33.0087 146.104Z" fill="#F0F0F0"/>
<path d="M25.3903 327.189V358.138C25.3933 360.113 26.1969 362.006 27.6249 363.403C29.0529 364.799 30.9889 365.585 33.0084 365.588H307.17C309.19 365.585 311.126 364.799 312.554 363.403C313.982 362.006 314.785 360.113 314.788 358.138V327.189H25.3903Z" fill="#D0D0D0"/>
<path d="M27.9738 146.41L26.8709 148.095L314.237 328.032L315.34 326.347L27.9738 146.41Z" fill="#D0D0D0"/>
<path d="M315.048 146.41L27.6823 326.347L28.7852 328.032L316.151 148.095L315.048 146.41Z" fill="#D0D0D0"/>
<path d="M557.881 588.063L545.207 588.062L539.176 540.251L557.883 540.252L557.881 588.063Z" fill="#D9988F"/>
<path d="M557.543 584.012L544.02 578.64L543.621 578.48L536.153 584.012C532.055 584.012 528.115 585.559 525.155 588.331C522.195 591.103 520.444 594.885 520.267 598.889C520.246 599.109 520.246 599.34 520.246 599.57V600.08H561.113V584.012H557.543Z" fill="#2F2E41"/>
<path d="M528.199 576.528L516.243 580.642L494.329 537.497L511.975 531.426L528.199 576.528Z" fill="#D9988F"/>
<path d="M526.506 572.816L511.926 572.138L511.495 572.117L506.329 579.76C502.463 581.089 499.271 583.828 497.42 587.403C495.568 590.979 495.2 595.115 496.392 598.95C496.447 599.164 496.525 599.382 496.603 599.599L496.776 600.08L535.327 586.814L529.874 571.657L526.506 572.816Z" fill="#2F2E41"/>
<path d="M562.36 381.909C573.955 381.469 559.591 471.84 559.591 471.84C559.591 471.84 563.793 551.183 562.902 555.347C562.012 559.511 562.79 570.74 562.79 570.74C560.518 566.697 537.081 569.748 537.081 569.748L533.893 489.335L517.614 424.905L495.045 468.093L516.676 534.385C516.676 534.385 525.436 542.313 524.505 545.446C523.573 548.578 500.628 555.644 496.412 555.803C492.195 555.963 494.099 550.729 493.895 545.574C493.69 540.419 473.849 492.645 466.87 476.389C459.892 460.134 465.317 437.214 468.879 420.559C472.442 403.904 491.183 372.648 491.183 372.648C514.447 346.985 550.764 382.348 562.36 381.909Z" fill="#2F2E41"/>
<path d="M421.052 308.876C421.687 310.063 422.58 311.099 423.669 311.912C424.758 312.724 426.016 313.294 427.354 313.579C428.692 313.865 430.078 313.86 431.414 313.565C432.75 313.271 434.004 312.693 435.087 311.873L462.971 329.665L462.886 312.745L436.42 298.443C434.891 296.755 432.782 295.674 430.492 295.405C428.203 295.136 425.892 295.697 423.998 296.983C422.103 298.269 420.757 300.19 420.214 302.382C419.671 304.574 419.969 306.885 421.052 308.876Z" fill="#D9988F"/>
<path d="M556.338 396.396C527.583 396.397 511.736 390.767 503.321 385.741C493.032 379.594 491.271 373.113 491.201 372.839L491.181 372.761L492.182 360.435L492.62 359.475C494.639 355.057 494.907 350.063 493.372 345.462L493.34 345.367L493.348 345.269L500.072 259.984L523.865 252.361L530.787 245.559L561.606 245.122L565.9 253.636L590.196 262.582L578.26 332.071L572.538 341.717L574.841 352.225L574.825 352.32L567.318 396.14L566.905 396.158C563.203 396.32 559.68 396.399 556.338 396.396Z" fill="#3F3D56"/>
<path d="M481.946 343.189L470.665 336.648L469.959 335.65C468.523 333.629 466.622 331.965 464.409 330.793C462.197 329.62 459.734 328.972 457.219 328.899L457.087 328.895L441.55 319.961L447.991 301.509L472.347 308.546L489.328 267.282C490.26 265.016 491.817 263.047 493.826 261.595C495.834 260.142 498.215 259.263 500.704 259.055C503.192 258.847 505.691 259.318 507.923 260.416C510.154 261.515 512.03 263.196 513.342 265.275C514.686 267.448 515.383 269.944 515.355 272.483V299.483L515.253 299.617L481.946 343.189Z" fill="#3F3D56"/>
<path d="M557.366 380.526C557.607 379.207 558.141 377.956 558.93 376.861C559.719 375.766 560.744 374.854 561.932 374.188C563.121 373.522 564.444 373.12 565.809 373.008C567.174 372.897 568.547 373.08 569.832 373.543L590.962 348.38L596.079 364.544L575.229 385.961C574.289 388.021 572.61 389.672 570.508 390.601C568.407 391.53 566.031 391.674 563.829 391.004C561.627 390.334 559.753 388.897 558.562 386.966C557.37 385.035 556.945 382.743 557.366 380.526Z" fill="#D9988F"/>
<path d="M588.959 377.346L574.928 363.622L583.859 342.338L596.804 325.051C583.01 318.484 572.656 302.925 565.154 290.046L565.07 289.902L566.938 275.591C567.375 272.244 568.746 269.08 570.9 266.444C572.774 264.152 575.181 262.332 577.921 261.137C580.661 259.941 583.654 259.405 586.649 259.572C589.645 259.74 592.555 260.606 595.138 262.099C597.721 263.592 599.901 265.668 601.495 268.154L626.652 322.848L626.368 323.261L606.134 356.996L600.612 360.498L588.959 377.346Z" fill="#3F3D56"/>
<path d="M568.324 216.434C567.399 223.029 563.835 228.995 558.415 233.021C552.995 237.047 546.163 238.804 539.419 237.907C532.675 237.009 526.571 233.53 522.448 228.233C518.326 222.937 516.521 216.256 517.432 209.66L517.482 209.303C518.546 202.795 522.183 196.956 527.609 193.047C533.035 189.137 539.815 187.471 546.486 188.406C553.157 189.342 559.185 192.805 563.269 198.048C567.353 203.291 569.166 209.894 568.317 216.433L568.324 216.434Z" fill="#D9988F"/>
<path d="M561.788 229.371C563.107 226.751 564.462 223.938 564.091 221.04C563.721 218.142 560.815 215.373 557.962 216.234C556.256 216.749 554.966 218.397 553.183 218.481C550.729 218.597 549.322 215.85 548.558 213.566L545.447 204.266C542.46 206.542 538.996 208.146 535.302 208.963C531.607 209.779 527.775 209.788 524.077 208.989C521.188 208.343 518.27 207.083 516.576 204.706C514.882 202.329 514.892 198.642 517.216 196.844C518.355 195.963 519.872 195.628 520.961 194.687C521.636 194.104 522.102 193.323 522.288 192.461C522.475 191.599 522.373 190.701 521.997 189.9C521.621 189.098 520.992 188.437 520.202 188.013C519.411 187.589 518.503 187.425 517.61 187.546L525.443 186.588L523.109 182.46C523.996 183.051 524.999 183.453 526.055 183.643C527.11 183.832 528.195 183.804 529.238 183.56C531.345 183.189 533.33 182.34 535.392 181.774C540.389 180.526 545.666 180.908 550.421 182.86C555.176 184.813 559.149 188.231 561.737 192.594C563.665 191.964 565.742 191.923 567.695 192.474C569.647 193.025 571.382 194.144 572.67 195.681C574.766 198.284 575.337 201.757 575.418 205.07C575.57 211.602 574.114 218.073 571.172 223.939C570.328 225.802 569.116 227.484 567.606 228.887C566.845 229.583 565.938 230.107 564.948 230.424C563.958 230.741 562.91 230.842 561.876 230.72" fill="#2F2E41"/>
<path d="M145.641 203.529C146.06 209.378 147.822 215.06 150.796 220.152C157.064 230.918 167.813 238.713 179.39 243.346C193.853 249.135 209.976 249.313 225.325 248.022C239.582 246.823 253.693 244.045 268.002 243.472C279.068 243.126 290.145 243.384 301.182 244.246C322.594 245.732 343.917 248.49 365.103 251.833C370.84 252.728 376.566 253.689 382.28 254.716C382.819 254.763 383.354 254.86 383.875 255.006C383.978 255.048 384.145 255.015 384.24 255.074C384.413 255.18 383.543 254.804 384.07 255.231C384.805 255.985 385.461 256.81 386.026 257.693L393.851 267.541C396.094 270.365 398.177 273.796 401.077 276.022C403.122 277.567 405.588 278.485 408.166 278.661C410.744 278.836 413.317 278.262 415.561 277.009C417.905 275.56 419.775 273.483 420.947 271.025C422.747 267.797 424.894 264.766 427.352 261.983C436.661 251.363 449.598 244.83 460.419 235.894C465.66 231.742 470.134 226.741 473.644 221.109C476.638 216.012 478.5 210.355 479.108 204.506C480.404 192.629 476.677 180.517 470.41 170.414C463.592 159.559 453.799 150.792 442.141 145.108C429.046 138.583 414.554 135.405 400.028 133.821C384.606 132.139 369.004 132.144 353.506 132.314C336.114 132.503 318.753 133.251 301.423 134.558C284.069 135.872 266.785 137.739 249.568 140.16C233.048 142.483 216.326 144.904 200.156 149.014C185.87 152.645 171.625 158.321 160.958 168.604C151.473 177.748 144.876 190.26 145.641 203.529Z" fill="#51017C"/>
<path d="M225.493 207.307C224.787 207.276 224.095 207.102 223.461 206.796C222.826 206.491 222.264 206.06 221.808 205.532C221.352 205.003 221.013 204.388 220.812 203.725C220.612 203.062 220.553 202.366 220.641 201.68L221.008 198.854C221.079 198.312 221.013 197.761 220.817 197.249C220.622 196.737 220.302 196.28 219.886 195.915L217.715 194.018C217.004 193.397 216.485 192.594 216.217 191.7C215.948 190.805 215.941 189.855 216.196 188.957C216.451 188.059 216.958 187.249 217.659 186.617C218.361 185.986 219.229 185.56 220.165 185.386L223.026 184.854C223.575 184.753 224.09 184.522 224.527 184.182C224.964 183.842 225.31 183.404 225.536 182.904L226.71 180.296C227.095 179.443 227.716 178.712 228.503 178.187C229.289 177.661 230.211 177.361 231.163 177.32C232.115 177.28 233.06 177.501 233.89 177.958C234.721 178.415 235.404 179.091 235.862 179.908L237.262 182.405C237.531 182.884 237.915 183.293 238.381 183.595C238.847 183.897 239.381 184.083 239.937 184.138L242.834 184.424C243.782 184.518 244.684 184.87 245.439 185.439C246.194 186.008 246.771 186.773 247.104 187.646C247.438 188.519 247.515 189.466 247.327 190.38C247.138 191.294 246.693 192.138 246.04 192.817L244.044 194.891C243.661 195.289 243.383 195.772 243.234 196.298C243.084 196.824 243.068 197.378 243.187 197.912L243.802 200.697C244.004 201.608 243.941 202.556 243.62 203.434C243.3 204.311 242.734 205.084 241.989 205.663C241.243 206.243 240.346 206.608 239.399 206.715C238.453 206.823 237.495 206.669 236.633 206.272L233.998 205.058C233.493 204.824 232.938 204.714 232.379 204.737C231.821 204.761 231.277 204.917 230.794 205.192L228.277 206.626C227.435 207.108 226.468 207.344 225.493 207.307Z" fill="white"/>
<path d="M266.509 206.142C265.209 206.083 263.98 205.546 263.068 204.639C262.517 204.068 262.106 203.382 261.866 202.633C261.626 201.884 261.563 201.091 261.683 200.314L262.02 197.721C262.092 197.169 262.025 196.608 261.826 196.087C261.627 195.565 261.301 195.099 260.876 194.728L258.863 192.969C258.269 192.473 257.796 191.854 257.477 191.157C257.159 190.46 257.004 189.702 257.022 188.938C257.066 187.808 257.502 186.725 258.257 185.868C259.013 185.011 260.044 184.43 261.181 184.221L264.009 183.695C264.568 183.591 265.093 183.356 265.539 183.01C265.984 182.663 266.337 182.216 266.566 181.706L267.62 179.365C267.997 178.477 268.617 177.707 269.412 177.141C270.208 176.575 271.147 176.235 272.127 176.158C273.088 176.104 274.045 176.319 274.886 176.777C275.727 177.234 276.418 177.916 276.878 178.742L278.262 181.211C278.536 181.699 278.927 182.115 279.402 182.423C279.877 182.731 280.421 182.921 280.988 182.977L283.673 183.242C284.452 183.301 285.207 183.53 285.884 183.912C286.561 184.293 287.142 184.817 287.586 185.446C288.229 186.387 288.526 187.513 288.43 188.64C288.334 189.767 287.849 190.829 287.055 191.652L285.083 193.702C284.694 194.107 284.411 194.599 284.258 195.135C284.106 195.671 284.089 196.235 284.209 196.778L284.778 199.35C284.96 200.093 284.971 200.866 284.811 201.613C284.651 202.36 284.323 203.063 283.851 203.671C283.138 204.565 282.135 205.194 281.008 205.455C279.88 205.716 278.695 205.593 277.648 205.106L275.041 203.905C274.527 203.668 273.961 203.557 273.394 203.581C272.826 203.605 272.272 203.764 271.781 204.044L269.293 205.461C268.45 205.943 267.484 206.179 266.509 206.142Z" fill="white"/>
<path d="M307.63 205.972C306.924 205.941 306.232 205.767 305.598 205.461C304.964 205.156 304.401 204.725 303.945 204.197C303.49 203.668 303.151 203.053 302.95 202.39C302.749 201.727 302.691 201.031 302.779 200.345L303.146 197.519C303.216 196.976 303.15 196.426 302.955 195.914C302.759 195.402 302.439 194.944 302.023 194.58L299.853 192.683C299.142 192.062 298.623 191.259 298.354 190.365C298.086 189.47 298.079 188.52 298.334 187.622C298.589 186.724 299.095 185.914 299.797 185.282C300.498 184.651 301.366 184.225 302.303 184.051L305.164 183.519C305.712 183.417 306.228 183.187 306.665 182.847C307.102 182.507 307.448 182.069 307.673 181.569L308.848 178.961C309.232 178.108 309.853 177.377 310.64 176.852C311.427 176.326 312.348 176.026 313.3 175.985C314.253 175.945 315.197 176.166 316.028 176.623C316.858 177.08 317.541 177.756 318 178.573L319.4 181.07C319.668 181.549 320.052 181.958 320.518 182.26C320.984 182.562 321.518 182.748 322.074 182.803L324.971 183.089C325.919 183.183 326.822 183.535 327.577 184.104C328.331 184.673 328.908 185.438 329.242 186.311C329.575 187.184 329.652 188.131 329.464 189.045C329.276 189.959 328.83 190.803 328.177 191.482L326.182 193.556C325.799 193.954 325.521 194.436 325.371 194.963C325.222 195.489 325.206 196.043 325.324 196.577L325.94 199.362C326.141 200.273 326.078 201.221 325.758 202.098C325.437 202.976 324.872 203.748 324.126 204.328C323.38 204.908 322.483 205.273 321.537 205.38C320.59 205.488 319.632 205.334 318.77 204.937L316.136 203.723C315.631 203.489 315.075 203.379 314.517 203.402C313.958 203.425 313.414 203.582 312.932 203.857L310.415 205.291C309.572 205.773 308.606 206.009 307.63 205.972Z" fill="white"/>
<path d="M347.629 204.91C346.922 204.879 346.23 204.706 345.596 204.4C344.962 204.095 344.399 203.664 343.944 203.135C343.488 202.607 343.149 201.992 342.948 201.329C342.748 200.666 342.689 199.969 342.777 199.283L343.144 196.457C343.214 195.915 343.149 195.365 342.953 194.853C342.758 194.341 342.438 193.883 342.021 193.519L339.851 191.622C339.14 191.001 338.621 190.198 338.353 189.304C338.084 188.409 338.077 187.459 338.332 186.561C338.587 185.663 339.094 184.852 339.795 184.221C340.496 183.59 341.364 183.163 342.301 182.99L345.162 182.458C345.711 182.356 346.226 182.126 346.663 181.786C347.1 181.446 347.446 181.008 347.672 180.508L348.846 177.899C349.231 177.047 349.851 176.316 350.638 175.79C351.425 175.265 352.347 174.964 353.299 174.924C354.251 174.884 355.195 175.105 356.026 175.562C356.856 176.019 357.539 176.694 357.998 177.511L359.398 180.008C359.667 180.488 360.05 180.896 360.516 181.198C360.982 181.5 361.517 181.687 362.073 181.742L364.969 182.028C365.918 182.122 366.82 182.473 367.575 183.043C368.33 183.612 368.906 184.377 369.24 185.25C369.573 186.123 369.65 187.07 369.462 187.984C369.274 188.898 368.828 189.742 368.175 190.421L366.18 192.495C365.797 192.893 365.519 193.375 365.37 193.901C365.22 194.428 365.204 194.982 365.323 195.515L365.938 198.301C366.139 199.212 366.076 200.16 365.756 201.037C365.435 201.915 364.87 202.687 364.124 203.267C363.379 203.847 362.482 204.211 361.535 204.319C360.589 204.426 359.63 204.273 358.769 203.875L356.134 202.661C355.629 202.427 355.073 202.317 354.515 202.341C353.957 202.364 353.413 202.52 352.93 202.796L350.413 204.23C349.57 204.712 348.604 204.948 347.629 204.91Z" fill="white"/>
<path d="M387.627 203.849C386.921 203.818 386.229 203.644 385.595 203.339C384.96 203.033 384.398 202.603 383.942 202.074C383.486 201.546 383.147 200.93 382.946 200.268C382.746 199.605 382.687 198.908 382.775 198.222L383.142 195.396C383.213 194.854 383.147 194.303 382.951 193.791C382.756 193.28 382.436 192.822 382.02 192.458L379.849 190.561C379.138 189.94 378.619 189.137 378.351 188.242C378.082 187.348 378.075 186.398 378.33 185.5C378.585 184.601 379.092 183.791 379.793 183.16C380.495 182.529 381.363 182.102 382.299 181.928L385.16 181.397C385.709 181.295 386.224 181.064 386.661 180.725C387.098 180.385 387.444 179.946 387.67 179.447L388.844 176.838C389.229 175.985 389.85 175.255 390.636 174.729C391.423 174.203 392.345 173.903 393.297 173.863C394.249 173.822 395.194 174.043 396.024 174.501C396.855 174.958 397.538 175.633 397.996 176.45L399.396 178.947C399.665 179.427 400.049 179.835 400.515 180.137C400.981 180.439 401.515 180.626 402.071 180.681L404.968 180.967C405.916 181.061 406.818 181.412 407.573 181.981C408.328 182.551 408.904 183.315 409.238 184.188C409.572 185.062 409.649 186.009 409.461 186.923C409.272 187.836 408.827 188.68 408.174 189.359L406.178 191.434C405.795 191.831 405.517 192.314 405.368 192.84C405.218 193.367 405.202 193.92 405.321 194.454L405.936 197.24C406.138 198.151 406.075 199.098 405.754 199.976C405.434 200.854 404.868 201.626 404.123 202.206C403.377 202.786 402.48 203.15 401.533 203.258C400.587 203.365 399.629 203.211 398.767 202.814L396.132 201.6C395.627 201.366 395.072 201.256 394.513 201.279C393.955 201.303 393.411 201.459 392.928 201.735L390.411 203.168C389.569 203.65 388.602 203.887 387.627 203.849Z" fill="white"/>
<path d="M650.16 599.662H223.199C222.875 599.662 222.566 599.537 222.337 599.313C222.109 599.09 221.981 598.787 221.981 598.471C221.981 598.155 222.109 597.852 222.337 597.628C222.566 597.405 222.875 597.28 223.199 597.28H650.16C650.483 597.28 650.793 597.405 651.021 597.628C651.25 597.852 651.378 598.155 651.378 598.471C651.378 598.787 651.25 599.09 651.021 599.313C650.793 599.537 650.483 599.662 650.16 599.662Z" fill="#CACACA"/>
</svg>
