<svg width="650" height="532" viewBox="0 0 650 532" fill="none" xmlns="http://www.w3.org/2000/svg">
<g clip-path="url(#clip0_42_41)">
<path d="M489.561 485.435L488.239 513.25L488.239 513.251C488.016 517.952 489.673 522.55 492.846 526.031C496.018 529.513 500.447 531.595 505.156 531.818L505.734 531.845L507.898 486.303L489.561 485.435Z" fill="#2F2E41"/>
<path d="M93.3582 438.428C106.631 464.282 123.466 489.285 144.766 511.915C145.239 512.426 145.717 512.924 146.199 513.431L196.666 489.584C196.357 489.072 196.019 488.497 195.655 487.869C173.976 450.846 43.1128 225.005 47.2479 173.855C46.7662 178.073 31.2549 317.587 93.3582 438.428Z" fill="#E6E6E6"/>
<path d="M135.03 516.516C135.736 516.917 136.46 517.309 137.189 517.688L175.049 499.799C174.519 499.424 173.903 498.981 173.194 498.482C161.595 490.17 127.106 465.231 93.3581 438.429C57.091 409.626 21.674 378.678 16.4142 363.906C17.4826 367.294 50.6776 470.262 135.03 516.516Z" fill="#E6E6E6"/>
<path d="M587.023 530.734C554.755 530.734 528.596 504.624 528.596 472.416C528.596 440.207 554.755 414.097 587.023 414.097C619.292 414.097 645.45 440.207 645.45 472.416C645.45 504.624 619.292 530.734 587.023 530.734Z" fill="#51017C"/>
<path d="M563.619 447.943H610.427C612.496 447.945 614.478 448.766 615.941 450.226C617.404 451.686 618.226 453.665 618.229 455.73V489.102C618.226 491.166 617.404 493.145 615.941 494.605C614.478 496.065 612.496 496.886 610.427 496.888H563.619C561.551 496.886 559.568 496.065 558.106 494.605C556.643 493.145 555.82 491.166 555.818 489.102V455.73C555.82 453.665 556.643 451.686 558.106 450.226C559.568 448.766 561.551 447.945 563.619 447.943ZM563.619 452.392C563.34 452.394 563.062 452.43 562.791 452.5L587.018 471.79L611.103 452.461C610.881 452.415 610.654 452.392 610.427 452.392H563.619ZM563.619 492.439H610.427C611.314 492.438 612.163 492.086 612.79 491.46C613.417 490.835 613.77 489.986 613.771 489.102V456.029L588.42 476.374C588.025 476.691 587.534 476.864 587.028 476.865C586.521 476.866 586.029 476.695 585.633 476.38L560.276 456.189V489.102C560.277 489.986 560.629 490.835 561.256 491.46C561.883 492.086 562.733 492.438 563.619 492.439Z" fill="white"/>
<path d="M361.54 388.219L348.467 388.326C347.144 388.337 345.835 388.06 344.63 387.514C343.426 386.968 342.355 386.166 341.493 385.164C340.631 384.163 339.998 382.986 339.639 381.715C339.279 380.444 339.202 379.111 339.412 377.807C339.638 376.404 340.191 375.073 341.026 373.922C341.861 372.772 342.955 371.832 344.22 371.181C345.485 370.529 346.886 370.182 348.31 370.17C349.733 370.157 351.14 370.478 352.417 371.107L364.745 377.179L406.913 386.565L424.978 368.129L435.354 385.188L410.977 403.987L361.54 388.219Z" fill="#FFB8B8"/>
<path d="M363.99 523.036L379.393 525.992C389.913 492.89 401.312 461.543 401.311 437.297C416.2 453.837 434.663 463.299 456.405 466.271L454.035 429.61L436.263 420.149L409.063 407.619C406.682 406.522 404.113 405.888 401.493 405.75C396.401 405.482 391.39 407.105 387.424 410.304C383.458 413.504 380.818 418.054 380.013 423.08L363.99 523.036Z" fill="#2F2E41"/>
<path d="M437.744 461.837L443.883 466.493C446.523 468.496 449.641 469.774 452.929 470.202C456.217 470.63 459.559 470.192 462.625 468.932C480.208 455.777 492.7 459.658 504.022 479.514C517.602 464.216 520.952 442.121 508.833 419.263L441.595 420.741L427.97 416.602L437.744 461.837Z" fill="#2F2E41"/>
<path d="M460.137 530.344C463.99 531.528 468.137 531.32 471.851 529.758C475.566 528.196 478.612 525.379 480.455 521.8C486.497 516.488 491.596 508.882 496.018 499.633C499.19 492.848 501.915 485.863 504.173 478.723C507.233 469.29 502.117 458.985 492.594 456.163C492.311 456.079 492.024 456 491.734 455.925C479.022 452.668 465.967 459.986 461.622 472.348L448.986 508.293C448.24 510.416 447.919 512.665 448.044 514.912C448.168 517.159 448.735 519.36 449.711 521.388C450.688 523.416 452.055 525.233 453.735 526.734C455.415 528.235 457.374 529.391 459.502 530.136C459.712 530.209 459.924 530.279 460.137 530.344Z" fill="#2F2E41"/>
<path opacity="0.2" d="M498.169 495.54C498.169 495.54 483.359 512.096 480.397 521.557L498.169 495.54Z" fill="black"/>
<path d="M555.608 417.405L560.565 429.48C561.067 430.701 561.295 432.018 561.235 433.337C561.174 434.656 560.826 435.946 560.215 437.117C559.603 438.288 558.744 439.311 557.695 440.117C556.647 440.922 555.435 441.489 554.144 441.779C552.755 442.091 551.313 442.073 549.932 441.726C548.551 441.38 547.271 440.715 546.195 439.785C545.118 438.854 544.276 437.685 543.735 436.371C543.194 435.056 542.97 433.633 543.081 432.216L544.149 418.536L537.213 375.972L513.354 366.08L525.367 350.126L551.909 365.733L555.608 417.405Z" fill="#FFB8B8"/>
<path d="M437.152 419.262C454.173 447.8 488.105 458.85 517.168 436.503C512.055 419.737 495.549 373.398 506.213 371.624C528.853 381.101 528.886 358.85 533.121 347.715L481.582 328.793L453.739 336.48L448.032 338.501C444.317 339.817 441.096 342.236 438.8 345.434C436.504 348.632 435.245 352.455 435.191 356.388C446.886 373.254 455.545 391.245 437.152 419.262Z" fill="#51017C"/>
<path d="M430.635 396.201L451.073 379.349L444.26 340.028L416.418 369.593L430.635 396.201Z" fill="#51017C"/>
<path d="M91.5079 126.073H94.4293V46.2173C94.4293 33.9597 99.3076 22.2042 107.991 13.5367C116.675 4.86931 128.452 0 140.733 0H310.234C322.515 0 334.292 4.86931 342.976 13.5367C351.659 22.2042 356.538 33.9597 356.538 46.2173V484.315C356.538 496.573 351.659 508.328 342.976 516.996C334.292 525.663 322.515 530.532 310.234 530.532H140.733C128.453 530.532 116.676 525.663 107.992 516.996C99.3084 508.328 94.43 496.573 94.43 484.315V182.916H91.5087L91.5079 126.073Z" fill="#3F3D56"/>
<path d="M138.864 12.023H160.99C159.972 14.5131 159.583 17.2149 159.858 19.8903C160.133 22.5658 161.062 25.1327 162.565 27.365C164.068 29.5972 166.098 31.4262 168.476 32.6909C170.854 33.9555 173.507 34.617 176.201 34.617H273.306C276 34.6167 278.653 33.9552 281.031 32.6906C283.408 31.426 285.438 29.5972 286.941 27.3653C288.443 25.1333 289.373 22.5668 289.648 19.8917C289.923 17.2166 289.535 14.5151 288.517 12.0252H309.186C318.357 12.0252 327.152 15.6616 333.637 22.1346C340.122 28.6075 343.766 37.3867 343.766 46.5409V483.993C343.766 493.148 340.122 501.927 333.637 508.4C327.152 514.873 318.357 518.509 309.186 518.509H138.871C129.7 518.509 120.904 514.873 114.419 508.4C107.934 501.927 104.291 493.148 104.291 483.993V46.5387C104.291 37.3845 107.934 28.6053 114.419 22.1324C120.904 15.6594 129.7 12.0229 138.871 12.0229L138.864 12.023Z" fill="white"/>
<path d="M223.733 494.064C213.245 494.064 204.744 485.578 204.744 475.11C204.744 464.642 213.245 456.157 223.733 456.157C234.22 456.157 242.721 464.642 242.721 475.11C242.721 485.578 234.22 494.064 223.733 494.064Z" fill="#E6E6E6"/>
<path d="M300.766 299.828C302.561 299.828 304.021 301.492 304.021 303.537C304.021 305.582 302.561 307.246 300.766 307.246H147.291C145.496 307.246 144.035 305.582 144.035 303.537C144.035 301.492 145.496 299.828 147.291 299.828H300.766Z" fill="#E6E6E6"/>
<path d="M300.766 387.306C302.561 387.306 304.021 388.97 304.021 391.015C304.021 393.06 302.561 394.724 300.766 394.724H147.291C145.496 394.724 144.035 393.06 144.035 391.015C144.035 388.97 145.496 387.306 147.291 387.306H300.766Z" fill="#E6E6E6"/>
<path d="M300.766 322.082C302.561 322.082 304.021 323.746 304.021 325.791C304.021 327.836 302.561 329.5 300.766 329.5H234.725C232.93 329.5 231.47 327.836 231.47 325.791C231.47 323.746 232.93 322.082 234.725 322.082H300.766Z" fill="#E6E6E6"/>
<path d="M300.766 343.294C302.561 343.294 304.021 344.958 304.021 347.003C304.021 349.048 302.561 350.712 300.766 350.712H147.291C145.496 350.712 144.035 349.048 144.035 347.003C144.035 344.958 145.496 343.294 147.291 343.294H300.766Z" fill="#E6E6E6"/>
<path d="M300.766 365.548C302.561 365.548 304.021 367.212 304.021 369.257C304.021 371.302 302.561 372.966 300.766 372.966H234.725C232.93 372.966 231.47 371.302 231.47 369.257C231.47 367.212 232.93 365.548 234.725 365.548H300.766Z" fill="#E6E6E6"/>
<path d="M271.793 130.944H176.255C175.199 130.946 174.187 131.365 173.441 132.109C172.695 132.854 172.275 133.864 172.274 134.918V234.232C172.275 235.285 172.695 236.295 173.441 237.04C174.187 237.785 175.199 238.204 176.255 238.205H271.793C272.848 238.204 273.86 237.785 274.606 237.04C275.352 236.295 275.772 235.285 275.773 234.232V134.918C275.772 133.864 275.352 132.854 274.606 132.109C273.86 131.365 272.848 130.946 271.793 130.944Z" fill="#51017C"/>
<path d="M196.612 217.725C196.257 217.725 195.905 217.656 195.576 217.521C195.248 217.386 194.949 217.187 194.698 216.937C194.446 216.687 194.247 216.389 194.11 216.062C193.974 215.734 193.904 215.383 193.904 215.028C193.904 214.674 193.974 214.323 194.109 213.995C194.245 213.667 194.445 213.37 194.696 213.119C194.947 212.868 195.246 212.67 195.574 212.534C195.902 212.399 196.254 212.329 196.609 212.33H251.435C251.791 212.329 252.143 212.398 252.471 212.533C252.8 212.668 253.098 212.867 253.35 213.117C253.601 213.368 253.801 213.665 253.937 213.993C254.073 214.32 254.143 214.671 254.144 215.026C254.144 215.38 254.074 215.732 253.938 216.059C253.802 216.387 253.603 216.684 253.351 216.935C253.1 217.186 252.802 217.385 252.473 217.52C252.145 217.656 251.793 217.725 251.438 217.725H196.612Z" fill="white"/>
<path d="M196.612 201.832C195.895 201.832 195.208 201.548 194.701 201.042C194.194 200.536 193.909 199.85 193.909 199.134C193.909 198.419 194.194 197.733 194.701 197.227C195.208 196.721 195.895 196.437 196.612 196.437H251.435C252.152 196.436 252.84 196.72 253.347 197.226C253.854 197.732 254.139 198.418 254.139 199.133C254.14 199.848 253.855 200.535 253.349 201.041C252.842 201.547 252.155 201.832 251.438 201.832H196.612Z" fill="white"/>
<path d="M224.024 151.425C220.659 151.425 217.37 152.421 214.573 154.287C211.775 156.152 209.595 158.804 208.307 161.907C207.02 165.01 206.683 168.424 207.339 171.717C207.996 175.011 209.616 178.037 211.995 180.411C214.374 182.786 217.405 184.403 220.705 185.058C224.005 185.714 227.425 185.377 230.534 184.092C233.642 182.807 236.299 180.631 238.168 177.838C240.037 175.046 241.035 171.763 241.035 168.405C241.03 163.903 239.236 159.587 236.047 156.404C232.858 153.221 228.534 151.43 224.024 151.425Z" fill="white"/>
<path d="M441.077 323.645H491.579C492.618 323.644 493.614 323.231 494.349 322.498C495.083 321.765 495.497 320.771 495.498 319.734V298.006C495.498 290.284 492.425 282.879 486.954 277.418C481.484 271.958 474.064 268.891 466.328 268.891C458.592 268.891 451.172 271.958 445.702 277.418C440.232 282.879 437.158 290.284 437.158 298.006V319.734C437.16 320.771 437.573 321.765 438.307 322.498C439.042 323.231 440.038 323.644 441.077 323.645Z" fill="#2F2E41"/>
<path d="M441.987 311.229C436.322 300.885 440.13 287.915 450.494 282.26C460.858 276.605 473.852 280.407 479.518 290.751C485.183 301.096 481.374 314.066 471.01 319.721C460.647 325.376 447.652 321.574 441.987 311.229Z" fill="#FFB6B6"/>
<path d="M430.258 300.179H461.139L461.456 295.754L463.039 300.179H467.794L468.421 291.408L471.56 300.179H480.76V299.745C480.754 293.639 478.32 287.784 473.995 283.467C469.669 279.149 463.804 276.72 457.686 276.713H453.332C447.215 276.72 441.349 279.149 437.024 283.467C432.698 287.784 430.265 293.638 430.258 299.745V300.179Z" fill="#2F2E41"/>
<path d="M461.391 327.702C461.624 327.701 461.856 327.681 462.085 327.64L484.698 323.658V286.356H459.805L460.422 287.073C468.996 297.054 462.536 313.239 457.923 321.998C457.583 322.64 457.431 323.364 457.485 324.088C457.539 324.811 457.797 325.505 458.229 326.089C458.591 326.588 459.066 326.995 459.616 327.275C460.166 327.555 460.774 327.702 461.391 327.702Z" fill="#2F2E41"/>
<path d="M386.105 511.871L358.207 511.87H358.205C353.49 511.871 348.968 513.74 345.634 517.068C342.3 520.396 340.426 524.91 340.426 529.616V530.193L386.104 530.195L386.105 511.871Z" fill="#2F2E41"/>
<path d="M0.730347 532H649.27C649.463 532 649.649 531.924 649.786 531.787C649.923 531.65 650 531.465 650 531.271C650 531.078 649.923 530.893 649.786 530.756C649.649 530.619 649.463 530.542 649.27 530.542H0.730347C0.536621 530.542 0.35083 530.619 0.213867 530.756C0.0769043 530.893 0 531.078 0 531.271C0 531.465 0.0769043 531.65 0.213867 531.787C0.35083 531.924 0.536621 532 0.730347 532Z" fill="#CACACA"/>
</g>
<defs>
<clipPath id="clip0_42_41">
<rect width="650" height="532" fill="white" transform="matrix(-1 0 0 1 650 0)"/>
</clipPath>
</defs>
</svg>
